<svg id="Layer_1" data-name="Layer 1" xmlns="http://www.w3.org/2000/svg" viewBox="0 0 410 311.96"><defs><style>.cls-1{fill:#fff8f8;}.cls-2{fill:#3b364d;}.cls-3{fill:#ffe5e2;}.cls-4{fill:#aab2c8;}.cls-5{fill:#e0e7ff;}.cls-25,.cls-26,.cls-6{fill:none;stroke-miterlimit:10;}.cls-6{stroke:#aab2c8;}.cls-7{fill:#fff;}.cls-18,.cls-22,.cls-27,.cls-32,.cls-7{isolation:isolate;}.cls-18,.cls-7{opacity:0.54;}.cls-8{fill:#773c4d;}.cls-9{fill:#965363;}.cls-10{fill:#61648a;}.cls-11{fill:#edf1fc;}.cls-12{fill:#ffc55a;}.cls-13{fill:#af2f48;}.cls-14{fill:#f49947;}.cls-15{fill:#f27c49;}.cls-16{fill:#d35473;}.cls-17{fill:#31344c;}.cls-18{fill:#232433;}.cls-19,.cls-22{fill:#383952;}.cls-20{fill:#6d3744;}.cls-21{fill:#542633;}.cls-22,.cls-32{opacity:0.36;}.cls-23{fill:#f4b8ab;}.cls-24{fill:#c3c9f4;}.cls-25{stroke:#191918;stroke-width:2px;}.cls-26{stroke:#e56a85;stroke-linecap:round;}.cls-27{fill:#dd6595;opacity:0.53;}.cls-28{fill:#7c9e1e;}.cls-29{fill:#b7ac15;}.cls-30{fill:#a88f14;}.cls-31,.cls-32{fill:#426313;}.cls-33{fill:#3a3852;}</style></defs><g id="OBJECTS"><path class="cls-1" d="M427.43,389.37c53.24-54.44,30.19-138.91-73-158.18S229.08,96.48,135.27,120.56,5.85,321.92,102.12,389.37Z" transform="translate(-45.13 -90.93)"/><rect class="cls-2" x="375.73" y="120.2" width="6.56" height="164.27"/><path class="cls-3" d="M179.89,389.37c0,2.38-20.88,4.31-46.62,4.31s-46.63-1.93-46.63-4.31,20.88-4.32,46.63-4.32S179.89,387,179.89,389.37Z" transform="translate(-45.13 -90.93)"/><ellipse class="cls-3" cx="261.02" cy="303.04" rx="90.61" ry="8.92"/><path class="cls-4" d="M185,222.05H58.64a10.76,10.76,0,0,1-10.76-10.76V101.69A10.76,10.76,0,0,1,58.64,90.93H185a10.76,10.76,0,0,1,10.76,10.76v109.6A10.76,10.76,0,0,1,185,222.05Z" transform="translate(-45.13 -90.93)"/><rect class="cls-5" x="12.77" y="10.84" width="127.85" height="109.44"/><line class="cls-6" x1="76.7" y1="10.84" x2="76.7" y2="120.28"/><line class="cls-6" x1="140.63" y1="65.56" x2="12.77" y2="65.56"/><polygon class="cls-7" points="68.71 10.84 25.83 120.2 44.79 120.2 88.13 10.84 68.71 10.84"/><polygon class="cls-7" points="101.86 10.84 58.98 120.2 77.95 120.2 121.29 10.84 101.86 10.84"/><rect class="cls-8" x="280.82" y="114.33" width="125.9" height="11.74"/><rect class="cls-9" x="326.42" y="114.33" width="80.3" height="11.74"/><path class="cls-10" d="M417.43,205.26H353.21a4,4,0,0,1-4-4V190.45a4,4,0,0,1,4-4h64.22Z" transform="translate(-45.13 -90.93)"/><rect class="cls-11" x="308.98" y="99.45" width="64.41" height="10.89"/><rect class="cls-5" x="308.82" y="99.45" width="45.98" height="10.89"/><path class="cls-12" d="M406.89,186.4H342.66a4.05,4.05,0,0,1-4.05-4.05V171.59a4.05,4.05,0,0,1,4.05-4.05h64.23Z" transform="translate(-45.13 -90.93)"/><rect class="cls-11" x="298.28" y="80.59" width="64.41" height="10.89"/><rect class="cls-5" x="298.28" y="80.59" width="46.3" height="10.89"/><path class="cls-13" d="M421.45,167.54H357.23a4,4,0,0,1-4.05-4V152.73a4,4,0,0,1,4.05-4h64.22Z" transform="translate(-45.13 -90.93)"/><rect class="cls-11" x="313.06" y="61.73" width="64.41" height="10.89"/><rect class="cls-5" x="312.84" y="61.73" width="43.42" height="10.89"/><path class="cls-12" d="M349.93,302.38c.08,14-1.24,27.4-4.87,39.44v0c-10.16,33.7-38.41,56.92-104.48,54.76-89.68-2.92-106-86.3-113.49-164.25-6.11-63.26,12.91-109.82,70-125.14,13.27-3.56,28.61-5.44,46.16-5.44C323.94,101.77,349.59,249,349.93,302.38Z" transform="translate(-45.13 -90.93)"/><path class="cls-14" d="M345.05,341.84c-10.16,33.7-38.41,56.92-104.48,54.76-89.68-2.92-106-86.3-113.49-164.25-6.1-63.26,12.91-109.82,70-125.14-49,29.89-61.2,84.33-41.17,167.15s70.58,106.91,103.32,107S333,370.7,345.05,341.84Z" transform="translate(-45.13 -90.93)"/><path class="cls-14" d="M220.51,180c-64,11.39-36,102.75-21.91,128.34s20.16,55.88,52.83,57.22,74.41-13.46,78.45-24.23-14.44-66.92-14.44-66.92-2.56-56.83-20.26-71.75S241.76,176.17,220.51,180Z" transform="translate(-45.13 -90.93)"/><path class="cls-15" d="M306.16,334c-11.69,21.84-51.51,29.52-65.16,26.06-8-2-17.67-9.33-26.43-19.8-5.6-9.86-10.08-21.35-16-32A124.29,124.29,0,0,1,191.35,292c-4.87-23.46-4.73-51.32,4.44-60.81,12.44-12.88,24.51-21.95,25.38-29.92.67-6.26-6.43-14.51-5-20.38,1.39-.36,2.84-.67,4.34-.93,17.5-3.12,44.81,4.14,63.8,15.14,1.83,6.92,2,16.19,6.28,19.2,6.61,4.6,16.82,33.46,19.41,47S306.16,334,306.16,334Z" transform="translate(-45.13 -90.93)"/><path class="cls-13" d="M393,368.69c.52,8.22,24.3-2.28,27.45-6.82,0,0-13,37.42-19.8,37.42s-25.26-19.49-25.26-19.49l2.22-11.11Z" transform="translate(-45.13 -90.93)"/><path class="cls-16" d="M400.68,399.29c-7.38,3.16,11.05-43.37,19.8-42.32S410.2,395.2,400.68,399.29Z" transform="translate(-45.13 -90.93)"/><path class="cls-17" d="M395.86,314.81c-.48,24.05-6.73,53.88-6.73,53.88h-15.4s-9.47-20.3-13.9-40.73a94.6,94.6,0,0,1-2.16-15.08s-23.87,7.22-46.95,2.89a275.19,275.19,0,0,1-29.91-7.8c-13.23-4.13-23.61-8.07-23.61-8.07l.78-1,16.84-21.29,45.32-6.82,5.31-.8,32.22,10C386.24,283.06,396.34,290.76,395.86,314.81Z" transform="translate(-45.13 -90.93)"/><path class="cls-18" d="M359.83,328a94.6,94.6,0,0,1-2.16-15.08s-23.87,7.22-46.95,2.89a275.19,275.19,0,0,1-29.91-7.8L258,298.9l-2-.79-3.78-15.75,48.75-17,19.19,5.46L352.38,280c-7.8,14,7.88,30.55,11.33,35.53s13.23-3.06,19.43,0S364.76,317.08,359.83,328Z" transform="translate(-45.13 -90.93)"/><path class="cls-13" d="M368.92,382.15c7.08,15.39,17.57,22.73,23.17,20.28l-2.45-25.52-10.14-4.38Z" transform="translate(-45.13 -90.93)"/><path class="cls-16" d="M392.09,402.44c-12.46,2.07-10.14-22-9.44-33.75s10.49-10.67,11.54-1.57S400.48,401,392.09,402.44Z" transform="translate(-45.13 -90.93)"/><path class="cls-19" d="M379.51,372.53l-10.58,9.62c-43.3-12.5-68.79-51.95-68.79-51.95-24.06,27.9-51,34.16-72.67,0,0,0,1.37-15.18,18.94-26.88A64.27,64.27,0,0,1,258.59,297c18.8-7.44,43.8-8.89,59.21-9a28.47,28.47,0,0,1,23.38,12.07c9.06,12.81,17.7,28.7,24.48,42.33C374,359.2,379.51,372.53,379.51,372.53Z" transform="translate(-45.13 -90.93)"/><path class="cls-18" d="M379.51,372.53l-10.58,9.62c-43.3-12.5-68.79-51.95-68.79-51.95-24.06,27.9-51,34.16-72.67,0,0,0,1.37-15.18,18.94-26.88L264.56,300c-21.18,41.59,29.74,31.89,38.92,24.31s17.86-15.19,22-15.61-17.55,15.57-2.28,33.78,50.48,29.56,42.49,0C374,359.2,379.51,372.53,379.51,372.53Z" transform="translate(-45.13 -90.93)"/><path class="cls-20" d="M274,165.39h-.64S266.92,190,256,199.1a14,14,0,0,1-6.34,3.21c-14.76,2.73-27.61-14.08-30-25.61-1.36-6.45,1-10.41,3.41-12.63a12.21,12.21,0,0,1,3.73-2.47s1-18.19,7.31-17.85c6.09.31,5.07,2.72,5,2.91.39-.53,13.65-18.15,22.77-16.23S264.57,146,264.57,146s11.69-11.84,15.58-5-7.62,15.1-7.62,15.1,9.9-.16,10.87,3.41S282.91,166.47,274,165.39Z" transform="translate(-45.13 -90.93)"/><path class="cls-21" d="M256,199.1a14,14,0,0,1-6.34,3.21c-14.76,2.73-27.61-14.08-30-25.61-1.36-6.45,1-10.41,3.41-12.63,2.2,2.85,5.14,8.57,11.84,1.32H238Z" transform="translate(-45.13 -90.93)"/><path class="cls-10" d="M295.18,272.13,227.8,334.59a68.22,68.22,0,0,1-8.59-9.22h0A67.08,67.08,0,0,1,209,306.57a83.72,83.72,0,0,1-3.77-15.21c-1.85-11.84-1.6-24.21-.85-36.5,1.75-28.78,10.45-48,45-48.49,0,0,15.84-4.42,27.56,1.89,9.22,5,15.22,41.64,17.37,57.06C294.88,269.51,295.18,272.13,295.18,272.13Z" transform="translate(-45.13 -90.93)"/><path class="cls-22" d="M280.83,243.68c-35.47,13.31-50.16-12.49-50.16-12.49L219.2,272.41,243.74,280l42.73-4.45Z" transform="translate(-45.13 -90.93)"/><path class="cls-22" d="M295.18,272.13,227.8,334.59a68.22,68.22,0,0,1-8.59-9.22c11.72-.89,36.9-28.92,30.28-30.38-5.92-1.3-26.28,12.56-40.5,11.58a83.72,83.72,0,0,1-3.77-15.21l21.65-18.95,67.43-7.09C294.88,269.51,295.18,272.13,295.18,272.13Z" transform="translate(-45.13 -90.93)"/><path class="cls-23" d="M257.2,263.83c7.91-5.35,17.12-.89,20.39,1.49s0,8.62,0,8.62a34.56,34.56,0,0,0-4.75-2.38c-1.19-.3-6.92,4.16-18.32,2.38S257.2,263.83,257.2,263.83Z" transform="translate(-45.13 -90.93)"/><path class="cls-10" d="M211,226.51c15.52-11.57,24.31-1.4,23.56,18.6l-.75,20s19.79-6.32,24.63-6.32c0,0,.42,13.69,0,18.6,0,0-23.93,23.16-39.72,24.92s-12.64-29.48-14-43.87S205.57,230.53,211,226.51Z" transform="translate(-45.13 -90.93)"/><path class="cls-24" d="M274.86,274.86l11.77-47.68a10.88,10.88,0,0,1,10.57-8.28h67.55a6.8,6.8,0,0,1,6.59,8.48L357.7,277.24Z" transform="translate(-45.13 -90.93)"/><path class="cls-5" d="M279.58,274.86l11.78-47.68a10.88,10.88,0,0,1,10.57-8.28h67.55a6.8,6.8,0,0,1,6.59,8.48l-13.64,49.86Z" transform="translate(-45.13 -90.93)"/><path class="cls-24" d="M342.92,279.62H257a2.39,2.39,0,0,1-2.38-2.38h0a2.39,2.39,0,0,1,2.38-2.38h85.95a2.38,2.38,0,0,1,2.37,2.38h0A2.38,2.38,0,0,1,342.92,279.62Z" transform="translate(-45.13 -90.93)"/><path class="cls-5" d="M363.18,279.62H277.23a2.38,2.38,0,0,1-2.37-2.38h0a2.38,2.38,0,0,1,2.37-2.38h85.95a2.38,2.38,0,0,1,2.37,2.38h0A2.38,2.38,0,0,1,363.18,279.62Z" transform="translate(-45.13 -90.93)"/><path class="cls-24" d="M334.44,247.93c-1.13,6.2-3.94,10.88-6.28,10.46s-3.31-5.8-2.17-12,3.94-10.88,6.27-10.46S335.57,241.73,334.44,247.93Z" transform="translate(-45.13 -90.93)"/><path class="cls-23" d="M277.84,169.38c1.49,22-2,31.69-14.48,32.94v5.11a6.86,6.86,0,0,1-6.86,6.86h0a6.86,6.86,0,0,1-6.86-6.86v-5.11s-10-4.25-12-10.48,0-1,0-1l-.89-25.45h41.38Z" transform="translate(-45.13 -90.93)"/><path class="cls-23" d="M238.29,181.28c-3.13-5.72-6.82-3.33-7.56,0s5.9,11.41,7.56,8.56S238.29,181.28,238.29,181.28Z" transform="translate(-45.13 -90.93)"/><path class="cls-20" d="M231.42,162.57c6.68,8.12,25.61,12.34,32.47,10.39s-2.89-8.27-2.89-8.27,12.71,8.76,18.53,5.84-9.87-10.07-9.87-10.07Z" transform="translate(-45.13 -90.93)"/><path class="cls-25" d="M254.11,180c0,1.18-.21,2.13-.47,2.13s-.47-1-.47-2.13.21-2.12.47-2.12S254.11,178.78,254.11,180Z" transform="translate(-45.13 -90.93)"/><path class="cls-25" d="M267.59,180c0,1.18-.21,2.13-.47,2.13s-.47-1-.47-2.13.21-2.12.47-2.12S267.59,178.78,267.59,180Z" transform="translate(-45.13 -90.93)"/><path class="cls-26" d="M262.16,191.81c-6.46.15-11.47-4.5-11.47-4.5" transform="translate(-45.13 -90.93)"/><path class="cls-27" d="M263.36,202.32a117.41,117.41,0,0,1-11.93.29l11.93,4.82Z" transform="translate(-45.13 -90.93)"/><path class="cls-27" d="M238,182.81c-2.8-2.94-4.17-1.73-4,1.32s3.86,5.24,5.05,4.36S238,182.81,238,182.81Z" transform="translate(-45.13 -90.93)"/><path class="cls-28" d="M128.56,335.71c-12.41-4.56-19.25-2.78-23-7.85,0,0,10.12-1.77,15.7,0Z" transform="translate(-45.13 -90.93)"/><path class="cls-29" d="M121.22,327.86c-15.08-7.88-19.55-16.82-23.39-23s-6-11.28-7.45-11.71,6.18,1.07,13.42,8.31,10.22,8.3,16,14.05,10.85,14.21,11.49,20.2h-2.7Z" transform="translate(-45.13 -90.93)"/><path class="cls-28" d="M125.51,325.73c-8.14-12.5-.83-19.68-10.64-33.86-11.5-16.6-7.88-33.21-6.18-43.65,0,0-2.55,12.15,7.46,24s19.8,16.39,20.65,34-2.56,29.52-2.56,29.52h-5.68Z" transform="translate(-45.13 -90.93)"/><path class="cls-29" d="M132.93,335.71c-2.73-11.71,2.59-31.7,3-51.5s-10.65-34.5,5.75-53c0,0-3.41,3.41,1.28,17s15.12,27.9,10,46.21-16.13,33.31-16.05,41.28Z" transform="translate(-45.13 -90.93)"/><path class="cls-30" d="M136.94,335.71c-1.71-14,12.64-36,24.77-40.85a26.9,26.9,0,0,1-6.6,19.54c-7.88,8.78-13.73,21.31-13.73,21.31Z" transform="translate(-45.13 -90.93)"/><path class="cls-31" d="M141.38,335.71c.53-9.34,8.62-12.61,16.93-15,0,0-10,10.1-11.71,15Z" transform="translate(-45.13 -90.93)"/><path class="cls-32" d="M145.27,336.78c1.42-7.08,4.61-9.3,4-9.71s-4.21,5.55-6,8.64c0,0-2.43-8.07,1.21-15s7.07-12.21,7.07-12.21S139.82,322,139.21,328.87a43.92,43.92,0,0,1,.81-15.76c2-8.88,7.28-17.37,5.36-27.88s-4-21.73-4-21.73.87,10.69,1.88,19.95-1.74,14.11-4.41,24-1.18,24-2.33,23.92-3,2.56-3,2.56-1.22-15.16-3-28.1-1.62-14.68-9.5-22.4-8.9-12.44-8.9-12.44,5.33,10.58,9.74,17.46,5.83,9.9,5.83,22,.61,18.95,1.62,20.89-7.48-11.52-14.15-16.1a61.4,61.4,0,0,1-12.74-11.86c-.6-1,6.47,11.72,11.73,15.16s14.41,15.16,14.41,15.16l-15-4.05,17,7.08Z" transform="translate(-45.13 -90.93)"/><path class="cls-33" d="M158.67,339.48l-8,46a4.32,4.32,0,0,1-.56,1.54,4.64,4.64,0,0,1-4,2.31H117.34a4.65,4.65,0,0,1-4.58-3.9l-7.5-46a4.66,4.66,0,0,1,4.6-5.4h44.22A4.66,4.66,0,0,1,158.67,339.48Z" transform="translate(-45.13 -90.93)"/><path class="cls-18" d="M150.11,387.06a4.64,4.64,0,0,1-4,2.31H117.35a4.65,4.65,0,0,1-4.59-3.9l-7.49-46a4.65,4.65,0,0,1,4.59-5.4h15.21C111,355.94,134.48,381.39,150.11,387.06Z" transform="translate(-45.13 -90.93)"/><path class="cls-12" d="M198.6,308.29c5.89,10.66,10.37,22.15,16,32a115,115,0,0,1-16.26-25.9,108.61,108.61,0,0,1-7-22.4A124.29,124.29,0,0,0,198.6,308.29Z" transform="translate(-45.13 -90.93)"/></g></svg>